# xmcd CD database file
#
# Track frame offsets:
#	150
#	20365
#	38982
#	54685
#	73217
#	78370
#	92117
#	108447
#	132427
#	150275
#
# Disc length: 2091 seconds
#
# Revision: 1
# Processed by: cddbd v1.5.2PL0 Copyright (c) Steve Scherf et al.
# Submitted via: CDex 1.79
#
DISCID=7f08290a
DTITLE=Don Nix - In God We Trust
DYEAR=1971
DGENRE=Rock
TTITLE0=In God We Trust
TTITLE1=Golden Mansions
TTITLE2=I'll Fry Away
TTITLE3=He Never Lived A Day Without Jesus
TTITLE4=Nero My God To Thee
TTITLE5=Amos Burke
TTITLE6=Long Way To Nowhere
TTITLE7=Iuka
TTITLE8=Will The Circle Be Unbroken
TTITLE9=I've Tried (Trucker's Lament)
EXTD=YEAR: 1971
EXTT0=
EXTT1=
EXTT2=
EXTT3=
EXTT4=
EXTT5=
EXTT6=
EXTT7=
EXTT8=
EXTT9=
PLAYORDER=
